<?xml version="1.0" standalone="no"?>
<!DOCTYPE svg PUBLIC "-//W3C//DTD SVG 20010904//EN"
 "http://www.w3.org/TR/2001/REC-SVG-20010904/DTD/svg10.dtd">
<svg version="1.0" xmlns="http://www.w3.org/2000/svg"
 width="1536.000000pt" height="1024.000000pt" viewBox="0 0 1536.000000 1024.000000"
 preserveAspectRatio="xMidYMid meet">

<g transform="translate(0.000000,1024.000000) scale(0.100000,-0.100000)"
fill="#000000" stroke="none">
<path d="M7675 8643 c-939 -62 -1763 -476 -2359 -1186 -27 -32 -47 -60 -44
-62 2 -3 54 -29 114 -58 146 -72 306 -181 407 -276 l82 -79 150 153 c269 274
552 471 871 606 500 212 968 274 1589 209 121 -12 246 -20 278 -17 122 11 232
97 263 205 36 122 -1 265 -85 332 -133 105 -594 183 -1051 178 -91 -1 -187 -3
-215 -5z m-382 -70 c-7 -2 -21 -2 -30 0 -10 3 -4 5 12 5 17 0 24 -2 18 -5z
m-236 -49 c-3 -3 -12 -4 -19 -1 -8 3 -5 6 6 6 11 1 17 -2 13 -5z m-80 -20 c-3
-3 -12 -4 -19 -1 -8 3 -5 6 6 6 11 1 17 -2 13 -5z m-52 -14 c-27 -12 -43 -12
-25 0 8 5 22 9 30 9 10 0 8 -3 -5 -9z m-220 -75 c-16 -8 -37 -14 -45 -14 -8 0
-1 6 15 14 17 7 37 13 45 13 8 0 2 -6 -15 -13z m-115 -45 c-8 -5 -19 -10 -25
-10 -5 0 -3 5 5 10 8 5 20 10 25 10 6 0 3 -5 -5 -10z m-70 -30 c-19 -11 -39
-19 -45 -19 -5 0 6 8 25 19 19 11 40 19 45 19 6 0 -6 -8 -25 -19z m-90 -40
c-19 -11 -39 -19 -45 -19 -5 0 6 8 25 19 19 11 40 19 45 19 6 0 -6 -8 -25 -19z
m-65 -29 c-6 -4 -37 -23 -70 -41 -33 -17 -64 -36 -70 -40 -5 -4 -32 -20 -60
-35 -61 -33 -86 -55 -79 -66 3 -5 -5 -9 -16 -9 -14 0 -24 -8 -27 -20 -4 -15
-9 -18 -18 -10 -9 8 -15 8 -20 0 -3 -5 0 -11 7 -11 50 -5 59 -7 66 -14 4 -5
-1 -5 -10 -2 -10 3 -20 2 -23 -4 -4 -5 -10 -7 -14 -5 -3 3 -7 -4 -7 -14 0 -10
5 -16 11 -12 5 3 4 -1 -3 -10 -10 -13 -10 -17 0 -21 9 -3 7 -9 -7 -21 -19 -16
-19 -16 6 -5 20 8 25 17 22 33 -4 20 -4 20 11 2 8 -10 20 -15 26 -11 16 10 68
-4 66 -18 -1 -7 -5 -18 -9 -24 -5 -8 -3 -13 5 -13 10 0 10 -2 -1 -9 -10 -6
-20 -3 -32 12 -17 21 -18 21 -17 2 0 -11 -2 -29 -6 -40 -5 -14 -2 -12 9 5 13
21 15 22 10 4 -8 -30 27 -59 54 -45 11 6 22 7 25 2 3 -5 -9 -12 -27 -16 -25
-6 -28 -9 -12 -12 11 -3 25 -9 30 -15 7 -6 7 -8 0 -6 -13 4 -16 -12 -9 -37 10
-29 26 -36 41 -17 12 15 12 14 2 -8 -7 -14 -17 -28 -23 -32 -6 -4 -1 -6 11 -5
12 0 19 6 15 12 -3 5 8 -1 25 -15 29 -23 47 -50 24 -35 -5 3 -12 1 -16 -5 -3
-5 -1 -10 5 -10 6 0 8 -5 4 -12 -5 -8 -1 -9 12 -5 17 6 17 5 -2 -11 -11 -10
-21 -26 -21 -36 0 -17 1 -17 16 1 9 10 15 16 14 14 -2 -2 7 -12 19 -22 11 -11
18 -19 15 -19 -3 0 -13 -3 -23 -7 -13 -5 -15 -3 -9 7 5 9 4 11 -3 6 -17 -10
-15 -26 4 -26 8 0 12 -4 9 -10 -3 -5 -1 -10 5 -10 7 0 9 -7 6 -16 -3 -8 -2
-12 4 -9 6 3 7 18 4 33 -4 20 -3 23 5 12 5 -8 13 -11 17 -8 3 4 15 -2 27 -12
22 -21 37 -18 37 8 0 12 3 13 8 5 5 -8 22 -2 57 21 75 49 125 78 125 73 0 -3
-37 -29 -82 -58 -46 -29 -107 -70 -136 -91 -29 -22 -56 -37 -61 -34 -5 3 -15
-2 -22 -12 -13 -15 -12 -16 4 -3 9 7 17 11 17 9 0 -3 -42 -42 -94 -86 -95 -82
-293 -278 -321 -319 -16 -23 -16 -22 -85 45 -95 95 -231 188 -393 272 l-138
72 57 66 c130 152 356 368 499 478 126 96 311 215 460 296 72 38 86 45 70 29z
m2585 -235 c0 -2 -8 -10 -17 -17 -16 -13 -17 -12 -4 4 13 16 21 21 21 13z
m-2860 -35 c0 -6 -4 -12 -8 -15 -5 -3 -9 1 -9 9 0 8 4 15 9 15 4 0 8 -4 8 -9z
m1543 -38 c-7 -2 -19 -2 -25 0 -7 3 -2 5 12 5 14 0 19 -2 13 -5z m-1438 -83
c-3 -5 -12 -10 -18 -10 -7 0 -6 4 3 10 19 12 23 12 15 0z m-29 -21 c9 -16 -18
-30 -33 -17 -7 6 -10 14 -7 19 7 13 31 11 40 -2z m779 -79 c-3 -5 -12 -10 -18
-10 -7 0 -6 4 3 10 19 12 23 12 15 0z m-698 -72 c-3 -7 -5 -2 -5 12 0 14 2 19
5 13 2 -7 2 -19 0 -25z m572 18 c-10 -9 -89 -46 -89 -41 0 6 72 44 84 45 5 0
7 -2 5 -4z m-100 -50 c-2 -2 -15 -9 -29 -15 -24 -11 -24 -11 -6 3 16 13 49 24
35 12z m-59 -31 c0 -2 -13 -11 -30 -20 -38 -19 -40 -11 -2 9 31 17 32 18 32
11z"/>
<path d="M6095 7943 c-17 -5 -15 -7 10 -18 17 -7 34 -10 38 -8 9 5 -11 34 -22
32 -3 -1 -15 -4 -26 -6z"/>
<path d="M6232 7668 c4 -8 2 -20 -2 -24 -5 -5 -6 -14 -2 -21 5 -8 11 -4 18 11
8 17 7 25 -5 36 -13 12 -14 12 -9 -2z"/>
<path d="M6207 7648 c-8 -29 -4 -32 11 -8 6 10 8 21 3 24 -5 3 -11 -4 -14 -16z"/>
<path d="M6206 7597 c3 -10 9 -15 12 -12 3 3 0 11 -7 18 -10 9 -11 8 -5 -6z"/>
<path d="M6245 7520 c-3 -5 -1 -10 4 -10 6 0 11 5 11 10 0 6 -2 10 -4 10 -3 0
-8 -4 -11 -10z"/>
<path d="M6360 7480 c0 -5 5 -10 11 -10 5 0 7 5 4 10 -3 6 -8 10 -11 10 -2 0
-4 -4 -4 -10z"/>
<path d="M6325 7460 c-3 -5 -2 -10 4 -10 5 0 13 5 16 10 3 6 2 10 -4 10 -5 0
-13 -4 -16 -10z"/>
<path d="M9701 8348 c-228 -34 -345 -302 -211 -487 l31 -42 -74 -87 c-41 -48
-159 -186 -262 -307 -103 -121 -192 -222 -197 -224 -5 -1 -41 7 -79 19 -124
40 -251 14 -336 -68 -60 -59 -85 -114 -91 -197 -8 -129 55 -237 172 -297 54
-28 71 -32 146 -33 77 0 92 3 152 33 61 30 111 74 148 130 l15 23 235 -71
c272 -82 481 -148 846 -266 l261 -85 7 -60 c3 -34 15 -80 25 -104 38 -87 135
-166 225 -185 l31 -6 -3 -119 c-5 -216 -31 -442 -78 -672 -7 -34 5 -45 62 -57
l31 -7 16 74 c31 139 58 362 70 572 l12 209 30 6 c17 4 49 16 72 28 227 117
224 467 -4 578 -42 21 -76 29 -145 33 l-89 6 -34 77 c-116 268 -377 721 -424
736 -8 3 1 -15 21 -39 76 -94 218 -339 328 -564 71 -147 102 -220 95 -227 -2
-1 38 -3 88 -3 73 0 102 -4 138 -21 138 -64 208 -205 174 -352 -32 -138 -107
-211 -252 -248 -8 -2 -13 -19 -13 -41 0 -173 -44 -587 -80 -751 l-12 -53 -36
7 c-21 4 -38 7 -39 8 0 0 12 71 27 156 33 180 48 317 57 521 7 158 7 157 -48
164 -42 6 -126 53 -156 90 -40 47 -74 130 -80 195 -6 58 -7 60 -42 71 -20 6
-124 39 -231 74 -292 95 -618 198 -775 245 -77 22 -180 54 -228 70 l-88 28
-24 -38 c-51 -80 -124 -127 -232 -150 -51 -10 -72 -10 -110 0 -122 33 -177 76
-225 178 -26 55 -30 71 -26 130 7 111 65 200 166 249 77 38 199 39 279 4 l51
-23 35 39 c19 21 47 54 63 73 16 19 33 40 39 46 5 6 69 80 140 164 72 85 150
177 175 205 25 28 58 66 73 84 l29 33 -20 21 c-44 48 -73 124 -74 195 -1 112
57 209 161 270 42 24 55 27 146 27 93 0 104 -2 155 -31 95 -53 160 -161 160
-265 0 -105 -79 -233 -175 -281 -74 -38 -173 -36 -276 7 -12 5 -60 -45 -193
-202 -293 -344 -349 -411 -357 -425 -5 -8 4 -38 22 -73 19 -39 30 -78 31 -111
l2 -51 96 -28 c191 -54 563 -169 890 -275 184 -59 344 -111 356 -114 17 -5 26
2 49 38 15 24 49 60 75 80 l48 37 -48 107 c-94 213 -173 358 -305 562 -44 69
-84 131 -89 138 -5 8 2 15 18 22 38 14 32 20 -9 8 -20 -7 -32 -16 -28 -22 4
-6 32 -49 63 -96 130 -194 277 -463 355 -649 l27 -64 -47 -40 c-26 -22 -57
-57 -70 -77 l-24 -38 -258 84 c-392 128 -1058 334 -1079 334 -1 0 -5 25 -9 55
-3 31 -19 80 -35 109 l-28 53 77 90 c42 50 159 189 260 309 102 120 187 223
191 227 4 4 26 -1 51 -12 55 -26 157 -27 225 -4 70 24 154 110 183 188 29 78
26 178 -7 247 -63 128 -202 198 -351 176z"/>
<path d="M5154 7229 c-69 -20 -181 -171 -299 -404 -491 -965 -438 -2122 140
-3060 131 -213 261 -379 441 -562 82 -85 94 -93 128 -93 34 0 46 8 125 88 218
219 401 421 401 441 0 9 -16 33 -36 52 -61 57 -217 258 -297 379 -324 494
-471 1024 -428 1550 32 378 140 708 347 1056 32 55 54 102 54 120 0 74 -145
246 -287 341 -123 81 -221 113 -289 92z"/>
<path d="M6473 6671 c-30 -14 -48 -32 -65 -63 l-23 -43 0 -1280 c0 -1260 0
-1281 20 -1314 11 -19 33 -43 48 -55 27 -20 43 -21 268 -24 281 -4 298 0 332
77 18 42 19 59 13 255 -3 116 -9 351 -12 521 -3 171 -9 486 -13 700 -4 215 -7
391 -6 392 1 2 17 -18 35 -45 65 -91 499 -651 1220 -1577 156 -200 202 -245
277 -274 73 -28 195 -36 325 -23 122 13 198 48 243 111 l30 43 0 1191 0 1192
-24 34 c-40 56 -66 61 -303 61 -238 0 -257 -5 -298 -72 -20 -32 -20 -48 -18
-771 2 -405 0 -736 -4 -735 -3 2 -107 136 -230 298 -609 801 -1012 1328 -1040
1358 -54 61 -65 62 -415 62 -291 0 -322 -2 -360 -19z"/>
<path d="M11121 4944 c-163 -239 -410 -438 -766 -617 -173 -86 -296 -137 -593
-241 -269 -95 -372 -136 -497 -199 -408 -204 -708 -560 -741 -881 -9 -88 12
-220 56 -353 l37 -113 -22 -20 c-12 -11 -24 -20 -27 -20 -3 0 -23 39 -43 87
-47 110 -60 128 -110 156 -37 20 -58 22 -315 28 -212 5 -302 12 -393 28 -504
90 -921 278 -1311 594 l-98 79 -257 -256 c-141 -141 -257 -264 -258 -274 0 -9
22 -36 49 -59 27 -24 45 -43 41 -43 -16 1 -104 90 -98 100 3 6 0 7 -10 4 -22
-9 -19 -13 55 -79 316 -282 714 -508 1145 -651 341 -112 607 -166 835 -168
162 -1 193 8 343 98 116 69 229 155 357 270 186 167 411 337 572 434 46 27
207 116 358 197 331 178 527 294 759 449 96 64 175 115 177 113 4 -4 -122
-163 -135 -172 -6 -3 -11 -11 -11 -16 0 -6 5 -7 11 -3 18 11 -7 -30 -28 -47
-17 -13 -17 -13 0 7 38 45 14 35 -38 -16 -31 -30 -53 -60 -51 -67 3 -7 1 -12
-3 -10 -5 1 -51 -37 -102 -84 -52 -47 -114 -103 -139 -125 -78 -70 -288 -235
-490 -386 -107 -80 -267 -206 -355 -279 -156 -130 -515 -473 -515 -493 0 -13
344 0 523 20 271 29 609 112 802 196 265 115 568 320 739 501 352 373 550 770
637 1277 26 157 37 536 20 716 -12 123 -48 350 -60 370 -3 7 -24 -15 -50 -52z
m47 9 c1 -19 -1 -24 -7 -14 -7 11 -11 10 -20 -5 -6 -11 -11 -15 -11 -11 0 7
30 57 34 57 1 0 3 -12 4 -27z m9 -65 c-3 -8 -6 -5 -6 6 -1 11 2 17 5 13 3 -3
4 -12 1 -19z m10 -60 c-3 -7 -5 -2 -5 12 0 14 2 19 5 13 2 -7 2 -19 0 -25z
m-127 -1 c0 -2 -12 -14 -27 -28 l-28 -24 24 28 c23 25 31 32 31 24z m137 -59
c-3 -8 -6 -5 -6 6 -1 11 2 17 5 13 3 -3 4 -12 1 -19z m-207 -21 c0 -2 -15 -16
-32 -33 l-33 -29 29 33 c28 30 36 37 36 29z m-130 -121 c0 -2 -8 -10 -17 -17
-16 -13 -17 -12 -4 4 13 16 21 21 21 13z m357 -48 c-3 -7 -5 -2 -5 12 0 14 2
19 5 13 2 -7 2 -19 0 -25z m-651 -163 c-11 -8 -25 -15 -30 -15 -6 1 0 7 14 15
32 19 40 18 16 0z m661 -97 c-2 -24 -4 -7 -4 37 0 44 2 63 4 43 2 -21 2 -57 0
-80z m-782 29 c-55 -30 -115 -58 -115 -52 0 6 132 74 145 74 6 1 -8 -9 -30
-22z m-125 -62 c0 -7 -82 -45 -94 -44 -6 0 12 11 39 25 55 26 55 26 55 19z
m-153 -71 c-38 -21 -164 -68 -154 -58 10 10 157 72 172 73 6 0 -3 -7 -18 -15z
m-187 -76 c-53 -22 -68 -28 -175 -63 -60 -21 -119 -46 -131 -56 -22 -20 -39
-26 -29 -9 8 13 9 13 -60 -14 -53 -22 -60 -28 -63 -55 -3 -26 -6 -29 -25 -22
-26 9 -104 3 -128 -10 -10 -5 -15 -18 -13 -35 3 -34 -21 -63 -29 -34 -4 14 -1
17 12 13 21 -8 12 1 -16 16 -19 10 -22 9 -17 -4 4 -8 1 -22 -6 -30 -7 -8 -9
-15 -4 -15 5 0 9 -11 9 -24 0 -15 -5 -22 -13 -19 -8 4 -11 16 -8 34 4 25 1 29
-20 29 -14 0 -24 -6 -24 -15 0 -9 6 -12 15 -9 11 5 13 2 9 -10 -3 -9 -10 -13
-15 -10 -6 3 -16 1 -24 -6 -8 -7 -15 -7 -19 -1 -4 5 2 14 11 20 25 14 11 23
-18 12 -13 -5 -18 -10 -11 -10 7 -1 11 -5 7 -10 -3 -5 8 -19 25 -31 16 -12 30
-17 30 -11 0 15 31 13 53 -3 18 -14 23 -36 8 -36 -6 0 -9 -8 -9 -17 0 -10 0
-22 -2 -28 -5 -20 0 -36 10 -30 7 4 9 -2 5 -18 -5 -18 -1 -28 13 -38 15 -11
17 -19 11 -36 -5 -13 -16 -23 -25 -23 -16 0 -16 -21 2 -107 4 -23 3 -33 -5
-33 -7 0 -10 -4 -7 -9 3 -5 -1 -11 -9 -15 -8 -3 -15 -2 -15 2 0 4 -10 8 -21 9
-20 2 -20 1 -3 -11 15 -11 16 -18 7 -37 -12 -24 -12 -24 -13 6 -2 30 -2 30
-10 5 -4 -14 -8 -36 -9 -50 -1 -20 1 -22 9 -10 14 22 11 -1 -3 -25 -16 -27
-37 -30 -37 -5 0 21 -15 27 -25 10 -3 -5 -1 -10 4 -10 6 0 11 -4 11 -10 0 -5
-7 -10 -16 -10 -14 0 -14 -3 -4 -15 10 -12 10 -15 0 -15 -9 0 -10 -3 -1 -14 9
-11 8 -15 -5 -20 -11 -4 -15 -14 -12 -31 3 -13 1 -26 -4 -29 -5 -2 -3 -3 4 -2
7 2 12 14 11 27 -2 19 -1 21 7 8 6 -10 6 -28 1 -46 -5 -17 -5 -38 1 -49 9 -18
9 -18 -6 -1 -8 11 -13 24 -12 30 2 7 1 9 -1 5 -2 -4 -12 -4 -21 -1 -13 4 -12
2 3 -10 19 -14 19 -16 3 -22 -10 -4 -18 -16 -18 -27 0 -10 -4 -17 -9 -14 -5 3
-11 0 -14 -8 -4 -10 0 -12 14 -9 14 4 18 1 14 -10 -5 -11 3 -16 37 -19 36 -4
56 2 126 38 45 24 82 42 82 40 0 -7 -214 -126 -227 -126 -2 0 -1 5 3 12 4 7 3
8 -5 4 -6 -4 -9 -12 -6 -17 4 -5 -2 -12 -12 -16 -33 -13 -307 -200 -397 -272
-49 -39 -93 -71 -96 -71 -4 0 -7 6 -8 13 0 6 -16 57 -35 112 -89 257 -62 470
86 690 48 70 42 64 132 163 187 208 428 355 800 487 88 32 207 75 265 96 94
34 174 54 110 27z m-520 -262 c0 -3 -4 -8 -10 -11 -5 -3 -10 -1 -10 4 0 6 5
11 10 11 6 0 10 -2 10 -4z m0 -86 c0 -5 -2 -10 -4 -10 -3 0 -8 5 -11 10 -3 6
-1 10 4 10 6 0 11 -4 11 -10z m-110 -55 c11 -13 10 -14 -4 -9 -9 3 -16 10 -16
15 0 13 6 11 20 -6z m4 -83 c3 -5 -1 -9 -9 -9 -8 0 -12 4 -9 9 3 4 7 8 9 8 2
0 6 -4 9 -8z m1036 -56 c0 -2 -8 -10 -17 -17 -16 -13 -17 -12 -4 4 13 16 21
21 21 13z m-140 -40 c0 -2 -8 -10 -17 -17 -16 -13 -17 -12 -4 4 13 16 21 21
21 13z m110 1 c0 -2 -10 -12 -22 -23 l-23 -19 19 23 c18 21 26 27 26 19z
m-150 -31 c0 -2 -12 -11 -27 -20 l-28 -17 24 20 c23 21 31 25 31 17z m-870
-25 c0 -4 -7 -8 -15 -8 -8 0 -15 6 -15 13 0 8 6 11 15 8 8 -4 15 -9 15 -13z
m980 5 c0 -2 -8 -10 -17 -17 -16 -13 -17 -12 -4 4 13 16 21 21 21 13z m-4010
-49 c0 -2 -17 -19 -37 -38 l-38 -34 34 38 c33 34 41 42 41 34z m3028 -22 c-3
-3 -9 2 -12 12 -6 14 -5 15 5 6 7 -7 10 -15 7 -18z m12 -19 c0 -3 -4 -8 -10
-11 -5 -3 -10 -1 -10 4 0 6 5 11 10 11 6 0 10 -2 10 -4z m690 -1 c0 -2 -10 -9
-22 -15 -22 -11 -22 -10 -4 4 21 17 26 19 26 11z m-3810 -38 c0 -2 -10 -12
-22 -23 l-23 -19 19 23 c18 21 26 27 26 19z m3720 -21 c0 -2 -7 -7 -16 -10 -8
-3 -12 -2 -9 4 6 10 25 14 25 6z m-653 -46 c-7 -17 -13 -26 -15 -21 -3 10 15
51 22 51 3 0 -1 -14 -7 -30z m873 27 c0 -2 -10 -12 -22 -23 l-23 -19 19 23
c18 21 26 27 26 19z m-4010 -31 c0 -2 -8 -10 -17 -17 -16 -13 -17 -12 -4 4 13
16 21 21 21 13z m3700 -1 c0 -2 -10 -9 -22 -15 -22 -11 -22 -10 -4 4 21 17 26
19 26 11z m-120 -70 c0 -2 -10 -9 -22 -15 -22 -11 -22 -10 -4 4 21 17 26 19
26 11z m-3660 -8 c0 -1 -30 -32 -67 -67 l-68 -65 65 68 c60 62 70 72 70 64z
m3150 -18 c0 -23 -33 -16 -37 7 -1 7 6 10 17 7 11 -3 20 -9 20 -14z m-5 -49
c4 -6 1 -9 -7 -8 -7 2 -12 -2 -11 -9 2 -7 -4 -10 -12 -7 -8 4 -15 10 -15 16 0
5 5 6 10 3 6 -3 10 -1 10 4 0 14 17 14 25 1z m355 -14 c0 -2 -7 -7 -16 -10 -8
-3 -12 -2 -9 4 6 10 25 14 25 6z m-115 -64 c-14 -12 -65 -32 -65 -26 0 3 15
11 33 19 37 17 45 18 32 7z m-260 -12 c-3 -5 -12 -10 -18 -10 -7 0 -6 4 3 10
19 12 23 12 15 0z m695 7 c0 -2 -10 -12 -22 -23 l-23 -19 19 23 c18 21 26 27
26 19z m-3980 -10 c0 -1 -26 -27 -57 -57 l-58 -55 55 58 c50 53 60 62 60 54z
m3910 -50 c0 -2 -10 -12 -22 -23 l-23 -19 19 23 c18 21 26 27 26 19z m-110
-91 c0 -2 -8 -10 -17 -17 -16 -13 -17 -12 -4 4 13 16 21 21 21 13z m-100 -79
c0 -2 -10 -12 -22 -23 l-23 -19 19 23 c18 21 26 27 26 19z m-50 -41 c0 -2 -8
-10 -17 -17 -16 -13 -17 -12 -4 4 13 16 21 21 21 13z m-3575 -60 c6 -4 1 -4
-10 2 -11 6 -29 21 -40 34 -19 22 -19 22 10 -2 17 -14 35 -29 40 -34z m2368
-3 c-7 -2 -21 -2 -30 0 -10 3 -4 5 12 5 17 0 24 -2 18 -5z m1037 -68 c-19 -14
-36 -25 -39 -25 -10 0 53 49 63 50 6 0 -5 -11 -24 -25z m-100 -69 c0 -1 -27
-24 -60 -50 -76 -60 -79 -53 -4 8 53 43 64 51 64 42z m-174 -139 c-307 -264
-495 -441 -490 -465 1 -7 0 -8 -3 -2 -2 6 -18 -4 -35 -22 l-31 -33 149 -5 149
-5 -167 -5 -168 -5 138 138 c135 137 258 249 416 379 89 73 120 92 42 25z
m-666 -71 c0 -2 -8 -10 -17 -17 -16 -13 -17 -12 -4 4 13 16 21 21 21 13z m583
-443 c-7 -2 -21 -2 -30 0 -10 3 -4 5 12 5 17 0 24 -2 18 -5z"/>
<path d="M9272 3743 c4 -14 0 -24 -9 -27 -12 -5 -13 -9 -3 -21 6 -8 9 -19 6
-24 -4 -5 -2 -12 4 -16 6 -4 7 -11 4 -17 -4 -6 -3 -8 3 -5 12 8 4 67 -9 67 -6
0 -1 8 10 18 19 16 20 18 5 31 -15 13 -16 13 -11 -6z"/>
<path d="M9281 3598 c9 -7 18 -22 20 -32 5 -26 29 -33 29 -9 0 11 -14 26 -32
37 -18 9 -26 11 -17 4z"/>
<path d="M9261 3582 c3 -20 -2 -33 -11 -27 -5 3 -7 0 -4 -8 7 -19 32 -17 29 2
-1 9 2 19 7 22 5 3 3 9 -6 12 -9 4 -15 3 -15 -1z"/>
<path d="M9265 3491 c-3 -5 -2 -12 3 -15 5 -3 9 1 9 9 0 17 -3 19 -12 6z"/>
<path d="M9265 3430 c-3 -5 -5 -10 -3 -11 31 -7 48 -7 48 2 0 5 -4 7 -10 4 -5
-3 -10 -1 -10 4 0 14 -17 14 -25 1z"/>
<path d="M9195 3419 c-4 -6 -5 -12 -2 -15 2 -3 7 2 10 11 7 17 1 20 -8 4z"/>
<path d="M9191 3333 c0 -11 3 -13 6 -5 2 6 9 10 14 6 5 -3 9 0 9 5 0 6 -7 11
-15 11 -8 0 -15 -8 -14 -17z"/>
<path d="M9120 2946 c0 -8 49 -13 60 -6 6 4 -5 7 -25 8 -19 1 -35 0 -35 -2z"/>
</g>
</svg>
