<?xml version="1.0" standalone="no"?>
<!DOCTYPE svg PUBLIC "-//W3C//DTD SVG 20010904//EN"
 "http://www.w3.org/TR/2001/REC-SVG-20010904/DTD/svg10.dtd">
<svg version="1.0" xmlns="http://www.w3.org/2000/svg"
 width="1536.000000pt" height="1024.000000pt" viewBox="0 0 1536.000000 1024.000000"
 preserveAspectRatio="xMidYMid meet">

<g transform="translate(0.000000,1024.000000) scale(0.100000,-0.100000)"
fill="#000000" stroke="none">
<path d="M4015 7619 c-234 -11 -465 -58 -684 -140 -159 -60 -387 -182 -508
-272 -114 -85 -363 -325 -363 -350 0 -21 64 -67 86 -61 12 2 33 -8 54 -27 l35
-30 -43 27 c-23 15 -45 24 -48 21 -3 -3 3 -10 15 -16 11 -6 72 -52 136 -102
107 -83 145 -101 145 -69 0 6 -6 8 -12 4 -7 -4 -2 5 11 19 14 15 27 27 29 27
3 0 -3 -9 -13 -20 -10 -11 -14 -20 -9 -20 5 0 47 38 94 84 47 46 115 105 151
132 103 77 125 96 107 90 -26 -8 -22 -1 10 20 23 15 25 15 13 1 -21 -26 -10
-21 96 38 107 59 276 130 344 144 24 5 94 19 154 32 99 22 135 24 360 24 194
0 278 -4 375 -19 120 -18 128 -18 185 -1 167 48 209 249 75 355 -105 83 -413
125 -795 109z m572 -45 c-3 -3 -12 -4 -19 -1 -8 3 -5 6 6 6 11 1 17 -2 13 -5z
m-914 -21 c-7 -2 -19 -2 -25 0 -7 3 -2 5 12 5 14 0 19 -2 13 -5z m-88 -19
c-27 -7 -54 -13 -60 -13 -17 2 69 27 90 27 11 0 -2 -6 -30 -14z m-240 -74
c-22 -10 -44 -18 -50 -18 -5 0 8 8 30 19 22 10 45 18 50 18 6 0 -8 -9 -30 -19z
m-105 -42 c-25 -12 -84 -41 -132 -65 -49 -24 -88 -41 -88 -38 0 8 240 125 254
125 6 -1 -9 -11 -34 -22z m1627 -30 c-3 -8 -6 -5 -6 6 -1 11 2 17 5 13 3 -3 4
-12 1 -19z m-1957 -142 c0 -2 -22 -20 -50 -40 -27 -20 -50 -34 -50 -31 0 4 91
74 98 75 1 0 2 -2 2 -4z m1093 -53 c-13 -2 -33 -2 -45 0 -13 2 -3 4 22 4 25 0
35 -2 23 -4z m773 -8 c-11 -8 -25 -15 -30 -15 -6 1 0 7 14 15 32 19 40 18 16
0z m-229 -11 c-3 -3 -12 -4 -19 -1 -8 3 -5 6 6 6 11 1 17 -2 13 -5z m-1782
-40 c-59 -51 -123 -101 -100 -76 26 27 129 112 135 111 3 0 -13 -16 -35 -35z
m625 -104 c-8 -5 -19 -10 -25 -10 -5 0 -3 5 5 10 8 5 20 10 25 10 6 0 3 -5 -5
-10z m-750 -3 c0 -1 -30 -32 -67 -67 l-68 -65 65 68 c60 62 70 72 70 64z m679
-30 c-2 -1 -13 -9 -24 -17 -19 -14 -19 -14 -6 3 7 9 18 17 24 17 6 0 8 -1 6
-3z m-179 -110 c0 -7 -92 -79 -96 -75 -2 3 17 21 42 42 45 34 54 40 54 33z
m-130 -100 c0 -1 -30 -32 -67 -67 l-68 -65 65 68 c60 62 70 72 70 64z m-275
-122 l40 -37 -50 38 c-62 46 -76 60 -50 46 11 -6 38 -27 60 -47z"/>
<path d="M5277 7415 c-92 -23 -151 -97 -149 -185 1 -43 44 -158 65 -171 5 -4
-6 -24 -25 -45 -19 -22 -62 -74 -97 -117 -35 -44 -67 -74 -73 -71 -6 4 -8 2
-5 -4 8 -11 -107 -155 -116 -146 -12 12 0 -22 15 -46 19 -28 37 -126 19 -100
-6 8 -11 24 -11 35 0 17 -2 17 -10 5 -7 -11 -10 -7 -10 18 0 47 -15 70 -53 80
-17 6 -39 13 -49 17 -11 4 -18 1 -21 -12 -4 -16 -5 -16 -6 0 -1 21 -19 23 -27
2 -8 -20 -21 -19 -28 3 -3 9 -4 5 -2 -11 3 -22 1 -25 -10 -16 -8 6 -11 16 -7
21 3 6 0 8 -8 6 -8 -3 -13 -11 -11 -17 1 -7 -14 -19 -33 -27 -20 -8 -33 -19
-30 -24 3 -6 2 -10 -4 -10 -5 0 -12 -8 -14 -17 -4 -14 -5 -13 -6 4 -1 21 53
94 67 91 4 -1 20 4 35 10 35 15 97 15 134 1 26 -10 31 -7 78 44 27 30 83 95
124 145 41 50 79 88 84 85 6 -3 7 -1 3 5 -7 11 50 83 62 79 8 -2 12 7 12 24 0
5 -5 7 -10 4 -10 -6 -129 -147 -244 -288 -82 -101 -77 -97 -99 -85 -11 5 -46
10 -78 10 -103 0 -180 -62 -195 -158 -9 -64 30 -141 88 -174 61 -34 153 -33
208 4 22 14 40 31 40 38 0 6 -7 5 -18 -5 -22 -20 -85 -47 -109 -47 -10 1 2 8
27 17 25 8 56 24 69 34 13 10 27 16 32 14 4 -3 15 6 24 19 15 23 19 24 38 12
20 -12 544 -188 735 -247 l72 -22 0 -36 c0 -65 61 -135 143 -161 28 -9 37 -17
37 -33 0 -54 -22 -253 -41 -361 -11 -65 -18 -125 -15 -133 10 -26 44 -14 55
20 26 79 61 342 61 457 0 45 2 48 31 54 74 15 150 133 134 209 -8 37 -45 107
-57 107 -13 0 -9 -12 10 -34 17 -21 17 -21 -6 -2 -12 11 -21 26 -20 34 4 23
-56 53 -120 60 l-57 6 -55 110 c-74 149 -186 346 -212 373 -16 17 -25 20 -39
12 -11 -5 -19 -14 -19 -20 0 -6 42 -85 93 -175 50 -90 111 -199 135 -241 l43
-78 -39 -36 c-22 -19 -44 -44 -49 -54 -9 -16 -40 -8 -404 114 -217 72 -402
131 -412 131 -13 0 -17 8 -17 33 0 18 -9 49 -20 69 l-20 38 167 199 c155 186
168 199 190 190 13 -5 51 -9 84 -9 119 0 199 75 199 186 0 133 -121 223 -253
189z m140 -26 c24 -12 42 -23 40 -25 -2 -2 -21 5 -43 17 -27 14 -53 19 -86 17
-25 -2 -44 0 -41 5 9 15 88 6 130 -14z m-152 1 c-3 -5 -12 -10 -18 -10 -7 0
-6 4 3 10 19 12 23 12 15 0z m-84 -68 c-11 -17 -25 -47 -30 -68 -6 -25 -9 -31
-10 -16 -2 37 43 131 57 118 2 -3 -5 -18 -17 -34z m334 -68 c3 -25 4 -48 2
-50 -3 -3 -8 17 -12 43 -3 26 -13 59 -21 73 l-15 25 19 -22 c11 -12 23 -43 27
-69z m-355 -73 c0 -11 9 -23 20 -26 23 -7 26 -21 6 -28 -8 -3 -19 8 -30 29
-19 41 -19 44 -6 44 6 0 10 -9 10 -19z m350 -4 c0 -7 -7 -22 -15 -33 -13 -17
-14 -16 -4 14 11 33 19 41 19 19z m-40 -72 c-7 -8 -17 -15 -23 -15 -6 0 -2 7
9 15 25 19 30 19 14 0z m-210 -35 c8 -5 11 -10 5 -10 -5 0 -17 5 -25 10 -8 5
-10 10 -5 10 6 0 17 -5 25 -10z m145 -5 c-16 -8 -52 -14 -80 -13 -50 1 -50 1
13 8 34 4 65 10 69 13 3 4 11 7 17 6 6 0 -2 -7 -19 -14z m277 -291 c49 -82 57
-100 36 -88 -8 4 -10 3 -5 -2 5 -5 14 -9 20 -9 7 0 12 -14 12 -32 0 -17 4 -35
9 -40 5 -4 6 -3 2 4 -3 6 -3 14 2 17 9 5 122 -204 122 -228 0 -24 -19 -20 -30
7 -5 12 -9 18 -9 12 -1 -5 -8 4 -17 20 -9 17 -36 68 -60 115 -25 47 -58 108
-74 135 -17 28 -38 66 -48 85 -9 19 -23 39 -29 43 -7 4 -13 16 -13 27 0 39 36
11 82 -66z m-952 -128 c0 -3 -4 -8 -10 -11 -5 -3 -10 -1 -10 4 0 6 5 11 10 11
6 0 10 -2 10 -4z m-163 -133 c-3 -10 -5 -2 -5 17 0 19 2 27 5 18 2 -10 2 -26
0 -35z m337 -35 c-12 -22 -19 -28 -22 -18 -3 7 0 16 7 18 6 2 11 10 11 18 0 8
5 14 10 14 6 0 3 -15 -6 -32z m221 -25 c77 -26 142 -49 145 -52 3 -3 14 -8 25
-9 59 -11 443 -141 451 -153 3 -5 10 -9 15 -9 6 0 7 5 3 12 -5 7 -3 8 5 4 8
-5 11 -3 10 5 -5 23 20 58 54 75 l32 16 -37 -32 c-34 -28 -37 -34 -27 -53 7
-12 8 -19 4 -15 -14 13 -35 -13 -36 -46 -2 -28 -2 -29 -6 -5 -3 20 -10 27 -26
27 -13 0 -103 27 -202 60 -99 33 -265 88 -370 122 -104 33 -195 68 -201 75 -6
8 -17 15 -23 15 -7 0 -10 4 -6 9 8 13 30 8 190 -46z m-497 -42 c7 -7 32 -19
55 -27 23 -7 34 -13 24 -13 -47 -2 -137 63 -137 98 0 7 10 1 22 -15 13 -16 29
-35 36 -43z m1352 -51 c11 -7 5 -10 -22 -10 -21 0 -38 5 -38 10 0 13 40 13 60
0z m86 -31 c3 -5 1 -9 -5 -9 -5 0 -13 5 -16 10 -4 6 -15 8 -26 5 -13 -4 -19
-2 -19 9 0 12 5 13 30 4 17 -5 33 -14 36 -19z m73 -148 c1 -51 -5 -34 -12 29
-4 36 -3 46 3 30 4 -14 8 -40 9 -59z m-346 -72 c14 -26 39 -53 63 -67 21 -13
30 -21 19 -17 -55 17 -115 84 -115 127 0 16 7 8 33 -43z m337 17 c0 -18 -46
-73 -73 -88 -11 -6 -2 7 21 29 23 22 42 47 42 56 0 10 2 17 5 17 3 0 5 -6 5
-14z m-165 -227 c0 -137 -32 -382 -55 -418 -14 -24 -29 -3 -20 29 5 16 12 60
16 97 4 37 10 60 12 50 5 -23 22 -12 22 14 0 13 -4 18 -12 13 -8 -5 -9 4 -4
32 3 21 9 89 12 149 4 61 11 116 17 123 7 8 5 12 -6 12 -9 0 -19 4 -22 10 -4
6 2 7 17 1 22 -8 23 -13 23 -112z"/>
<path d="M5046 6461 c5 -5 20 -12 34 -15 l25 -7 -25 15 c-28 17 -50 21 -34 7z"/>
<path d="M5139 6424 c19 -8 36 -12 39 -9 5 5 -43 25 -61 25 -7 -1 3 -7 22 -16z"/>
<path d="M5318 6363 c7 -3 16 -2 19 1 4 3 -2 6 -13 5 -11 0 -14 -3 -6 -6z"/>
<path d="M5952 5875 c0 -16 2 -22 5 -12 2 9 2 23 0 30 -3 6 -5 -1 -5 -18z"/>
<path d="M5916 5604 c-4 -14 -5 -28 -3 -31 3 -2 8 8 11 23 4 14 5 28 3 31 -3
2 -8 -8 -11 -23z"/>
<path d="M11674 6879 c-285 -28 -522 -222 -602 -494 -30 -101 -40 -264 -22
-372 41 -264 222 -470 485 -553 54 -17 104 -23 221 -27 143 -5 157 -4 245 21
351 101 544 370 526 735 -7 132 -24 207 -73 304 -141 282 -423 421 -780 386z
m281 -269 c75 -29 179 -129 218 -210 80 -165 71 -398 -21 -533 -100 -144 -257
-213 -430 -187 -96 15 -167 48 -235 110 -93 85 -137 198 -137 357 0 100 14
169 50 248 50 108 140 191 249 227 79 25 223 20 306 -12z"/>
<path d="M6952 6168 l3 -703 138 -3 137 -3 0 486 c0 317 3 485 10 485 6 0 10
-4 10 -9 0 -12 172 -260 423 -611 105 -146 203 -284 219 -307 l29 -43 140 0
139 0 0 705 0 705 -140 0 -140 0 0 -472 0 -473 -20 25 c-11 14 -103 149 -204
300 -101 151 -228 338 -281 415 -53 77 -106 155 -118 172 l-22 33 -163 0 -162
0 2 -702z"/>
<path d="M8540 6165 l0 -705 480 0 481 0 -3 113 -3 112 -330 0 -330 0 -3 188
-2 187 295 0 296 0 -3 113 -3 112 -292 3 -293 2 0 170 0 170 325 0 325 0 0
120 0 120 -470 0 -470 0 0 -705z"/>
<path d="M9690 6864 c0 -4 108 -164 240 -356 154 -223 238 -353 233 -361 -9
-15 -329 -464 -420 -590 -35 -48 -63 -90 -63 -92 0 -3 78 -5 173 -5 l174 0
160 239 160 239 38 -57 c21 -31 94 -138 162 -238 l124 -183 169 0 c94 0 170 2
170 5 0 3 -44 67 -97 142 -53 76 -122 174 -153 218 -31 44 -98 138 -149 209
-79 110 -91 132 -83 150 8 18 256 384 389 575 21 30 46 67 56 83 l19 28 -159
0 -159 0 -24 -38 c-71 -108 -293 -422 -299 -422 -3 1 -76 104 -161 230 l-155
229 -172 0 c-95 1 -173 -2 -173 -5z"/>
<path d="M2353 6709 c-63 -18 -183 -196 -254 -377 -148 -379 -180 -864 -83
-1272 79 -335 212 -594 451 -881 73 -87 101 -106 131 -90 23 12 225 229 261
279 l23 32 -43 51 c-299 357 -424 711 -406 1149 13 310 79 533 226 765 28 43
51 84 51 91 0 41 -157 202 -233 238 -59 28 -74 29 -124 15z"/>
<path d="M3216 6369 l-26 -20 0 -859 c0 -846 0 -859 20 -870 12 -6 83 -9 187
-8 l168 3 0 618 c0 339 3 616 7 615 7 -3 257 -329 851 -1107 98 -129 112 -135
257 -128 110 5 158 19 218 64 70 52 66 4 64 904 -2 630 -3 658 -21 680 -19 23
-24 24 -193 27 -101 1 -179 -2 -188 -7 -13 -9 -16 -83 -20 -532 l-5 -521 -255
338 c-359 477 -548 724 -584 763 -52 56 -75 61 -274 61 -166 0 -181 -2 -206
-21z"/>
<path d="M6149 5334 c-49 -72 -181 -206 -279 -283 -144 -114 -280 -188 -515
-277 -228 -86 -373 -147 -430 -181 -217 -131 -368 -305 -419 -483 -8 -30 -18
-80 -21 -110 -8 -69 10 -216 33 -271 l18 -41 55 45 c85 70 226 167 364 253 69
42 123 79 121 81 -2 3 -18 -3 -35 -12 -17 -8 -31 -13 -31 -11 0 11 61 37 71
31 23 -15 441 252 509 325 11 12 60 40 60 35 0 -39 -261 -309 -434 -451 -392
-320 -736 -621 -736 -643 0 -28 341 -25 480 4 14 3 49 9 78 15 207 38 480 179
670 345 217 191 410 539 480 866 44 201 54 468 27 672 -19 145 -24 152 -66 91z
m39 -9 c-3 -3 -9 2 -12 12 -6 14 -5 15 5 6 7 -7 10 -15 7 -18z m-88 -88 c0 -2
-10 -12 -22 -23 l-23 -19 19 23 c18 21 26 27 26 19z m-50 -50 c0 -2 -17 -19
-37 -38 l-38 -34 34 38 c33 34 41 42 41 34z m157 -44 c-3 -10 -5 -2 -5 17 0
19 2 27 5 18 2 -10 2 -26 0 -35z m10 -85 c-3 -8 -6 -5 -6 6 -1 11 2 17 5 13 3
-3 4 -12 1 -19z m-297 8 c0 -2 -8 -10 -17 -17 -16 -13 -17 -12 -4 4 13 16 21
21 21 13z m-941 -470 c-2 -2 -15 -9 -29 -15 -24 -11 -24 -11 -6 3 16 13 49 24
35 12z m-59 -31 c0 -2 -10 -9 -22 -15 -22 -11 -22 -10 -4 4 21 17 26 19 26 11z
m-180 -140 c0 -2 -10 -9 -22 -15 -22 -11 -22 -10 -4 4 21 17 26 19 26 11z
m-85 -94 c-3 -6 -11 -11 -17 -11 -6 0 -6 6 2 15 14 17 26 13 15 -4z m925 -34
c0 -2 -12 -14 -27 -28 l-28 -24 24 28 c23 25 31 32 31 24z m-982 -37 c-7 -10
-14 -17 -17 -15 -4 4 18 35 25 35 2 0 -1 -9 -8 -20z m922 -23 c0 -2 -17 -19
-37 -38 l-38 -34 34 38 c33 34 41 42 41 34z m-949 -25 c-6 -11 -21 -52 -35
-93 -14 -41 -26 -67 -26 -58 0 32 53 169 66 169 2 0 0 -8 -5 -18z m829 -96 c0
-2 -8 -10 -17 -17 -16 -13 -17 -12 -4 4 13 16 21 21 21 13z m-70 -66 c-19 -17
-44 -35 -55 -41 -25 -14 -21 -10 33 35 53 43 71 48 22 6z m-823 -147 c-2 -27
-3 -5 -3 47 0 52 1 74 3 48 2 -27 2 -69 0 -95z m433 92 c0 -2 -10 -9 -22 -15
-22 -11 -22 -10 -4 4 21 17 26 19 26 11z m260 -49 c0 -2 -8 -10 -17 -17 -16
-13 -17 -12 -4 4 13 16 21 21 21 13z m-50 -40 c0 -2 -8 -10 -17 -17 -16 -13
-17 -12 -4 4 13 16 21 21 21 13z m-370 -10 c0 -2 -8 -10 -17 -17 -16 -13 -17
-12 -4 4 13 16 21 21 21 13z m-257 -106 c4 -30 3 -38 -3 -25 -8 19 -14 83 -6
74 2 -2 6 -24 9 -49z m432 -48 c-6 -4 -24 -18 -40 -32 -29 -24 -29 -23 2 8 18
17 36 32 40 32 4 0 3 -3 -2 -8z m-235 -196 c0 -2 -8 -10 -17 -17 -16 -13 -17
-12 -4 4 13 16 21 21 21 13z m-90 -91 c-7 -8 -17 -15 -23 -15 -6 0 -2 7 9 15
25 19 30 19 14 0z"/>
<path d="M7120 5145 c-190 -59 -234 -341 -72 -462 57 -43 108 -55 216 -51 73
2 101 8 140 28 71 36 78 52 40 91 l-31 30 -34 -20 c-108 -62 -239 -38 -286 52
-22 43 -21 127 3 169 51 88 200 103 293 30 l24 -19 36 40 36 40 -35 29 c-19
16 -57 35 -84 43 -62 19 -186 18 -246 0z m180 -1 c-35 -7 -98 -9 -94 -2 3 5
29 7 57 7 29 -1 45 -3 37 -5z m-117 -11 c-7 -2 -19 -2 -25 0 -7 3 -2 5 12 5
14 0 19 -2 13 -5z m182 -3 l20 -9 -20 0 c-11 0 -27 4 -35 9 -13 9 -13 10 0 9
8 0 24 -4 35 -9z m93 -59 c3 -8 -3 -6 -15 5 -11 11 -28 25 -39 32 -10 7 -4 5
15 -5 19 -10 36 -24 39 -32z m-369 36 c-2 -1 -13 -9 -24 -17 -19 -14 -19 -14
-6 3 7 9 18 17 24 17 6 0 8 -1 6 -3z m-59 -46 c-5 -11 -15 -23 -21 -27 -6 -3
-3 5 6 20 20 30 30 35 15 7z m160 9 c-8 -5 -19 -10 -25 -10 -5 0 -3 5 5 10 8
5 20 10 25 10 6 0 3 -5 -5 -10z m165 -10 c3 -6 -1 -7 -9 -4 -18 7 -21 14 -7
14 6 0 13 -4 16 -10z m65 -42 c0 -6 -6 -5 -15 2 -8 7 -15 14 -15 16 0 2 7 1
15 -2 8 -4 15 -11 15 -16z m-453 -145 c-2 -16 -4 -5 -4 22 0 28 2 40 4 28 2
-13 2 -35 0 -50z m90 5 c-2 -13 -4 -5 -4 17 -1 22 1 32 4 23 2 -10 2 -28 0
-40z m-35 -141 c14 -20 16 -27 6 -19 -20 16 -58 92 -57 113 0 8 7 -3 14 -24 8
-21 24 -52 37 -70z m79 36 c13 -16 12 -17 -3 -4 -10 7 -18 15 -18 17 0 8 8 3
21 -13z m325 -25 c4 -7 3 -8 -5 -4 -6 4 -23 1 -36 -8 -13 -9 -30 -16 -37 -16
-12 1 50 39 64 40 4 0 10 -5 14 -12z m-257 -24 c14 -12 -19 -1 -35 12 -18 14
-18 14 6 3 14 -6 27 -13 29 -15z m275 0 c9 -3 16 -10 16 -14 0 -10 -89 -54
-95 -48 -3 2 13 12 35 22 41 18 50 30 28 39 -7 3 -10 6 -6 6 3 1 13 -2 22 -5z
m-166 -21 c-10 -2 -28 -2 -40 0 -13 2 -5 4 17 4 22 1 32 -1 23 -4z m-118 -47
c25 -8 36 -15 25 -15 -11 0 -33 6 -50 14 -39 18 -31 18 25 1z m108 -13 c-10
-2 -28 -2 -40 0 -13 2 -5 4 17 4 22 1 32 -1 23 -4z"/>
<path d="M9055 5144 c-68 -21 -110 -55 -145 -117 -36 -64 -46 -122 -32 -192
15 -72 53 -127 115 -167 47 -30 59 -33 148 -36 108 -5 184 12 234 52 l28 23
-34 37 -34 38 -45 -26 c-49 -28 -39 -36 12 -10 24 12 33 13 42 3 8 -9 8 -10
-2 -5 -7 4 -23 1 -35 -7 -16 -10 -45 -14 -105 -12 -137 5 -202 60 -202 170 0
69 26 115 80 143 67 33 132 30 200 -10 l55 -33 33 38 c40 44 38 50 -40 92 -45
24 -67 29 -138 32 -57 2 -102 -2 -135 -13z m78 -11 c-7 -2 -21 -2 -30 0 -10 3
-4 5 12 5 17 0 24 -2 18 -5z m204 -28 c24 -14 43 -30 43 -36 0 -6 -7 -3 -16 5
-25 25 -55 39 -114 53 l-55 13 49 -5 c27 -3 69 -17 93 -30z m-307 11 c0 -2
-18 -15 -40 -30 -22 -14 -40 -24 -40 -22 0 5 71 56 77 56 2 0 3 -2 3 -4z
m-102 -103 c-27 -47 -28 -49 -28 -37 0 11 38 74 45 74 2 0 -5 -17 -17 -37z
m412 11 c0 -8 -6 -11 -15 -8 -8 4 -15 9 -15 13 0 4 7 8 15 8 8 0 15 -6 15 -13z
m-443 -121 c-3 -10 -5 -2 -5 17 0 19 2 27 5 18 2 -10 2 -26 0 -35z m80 -20
c-3 -10 -5 -2 -5 17 0 19 2 27 5 18 2 -10 2 -26 0 -35z m-80 -40 c-3 -10 -5
-4 -5 12 0 17 2 24 5 18 2 -7 2 -21 0 -30z m117 -58 l17 -30 -20 24 c-12 13
-21 28 -21 34 0 12 0 11 24 -28z m-80 -30 l17 -30 -20 24 c-12 13 -21 28 -21
34 0 12 0 11 24 -28z m142 -20 c16 -8 22 -15 14 -15 -18 1 -70 29 -54 30 7 0
25 -7 40 -15z m298 -20 c3 -8 -3 -19 -13 -25 -17 -9 -18 -7 -7 15 13 29 12 29
20 10z m-306 -63 c-9 -4 -85 35 -93 47 -3 6 18 -2 47 -17 29 -15 50 -28 46
-30z m110 51 c-10 -2 -26 -2 -35 0 -10 3 -2 5 17 5 19 0 27 -2 18 -5z m117
-43 c-11 -5 -27 -9 -35 -9 -9 0 -8 4 5 9 11 5 27 9 35 9 9 0 8 -4 -5 -9z m-77
-17 c-10 -2 -28 -2 -40 0 -13 2 -5 4 17 4 22 1 32 -1 23 -4z"/>
<path d="M7750 4895 l0 -255 60 0 60 0 0 255 0 255 -60 0 -60 0 0 -255z m110
-3 l0 -238 -52 -3 c-29 -1 -49 1 -45 5 4 4 24 8 45 8 l37 1 3 233 c1 127 5
232 7 232 3 0 5 -107 5 -238z m-83 86 c-2 -13 -4 -3 -4 22 0 25 2 35 4 23 2
-13 2 -33 0 -45z m0 -165 c-3 -10 -5 -4 -5 12 0 17 2 24 5 18 2 -7 2 -21 0
-30z m0 -105 c-3 -7 -5 -2 -5 12 0 14 2 19 5 13 2 -7 2 -19 0 -25z"/>
<path d="M8175 4895 l0 -255 63 0 62 0 0 96 c0 84 2 95 16 90 9 -3 26 -6 39
-6 18 0 38 -20 87 -90 l63 -90 73 0 c39 0 72 2 72 5 0 2 -31 43 -70 91 -38 48
-70 90 -70 93 1 3 19 15 42 26 58 28 81 63 85 132 5 73 -19 116 -80 143 -36
17 -66 20 -212 20 l-170 0 0 -255z m61 232 c4 -4 -2 -7 -14 -7 -22 0 -22 -1
-22 -229 l0 -230 48 -4 47 -3 -52 -2 -53 -2 0 243 c0 237 1 244 20 242 11 -1
23 -4 26 -8z m159 3 c4 -6 -9 -10 -32 -9 -38 1 -38 1 -8 9 17 4 31 8 32 9 1 0
5 -3 8 -9z m-82 -7 c-7 -2 -19 -2 -25 0 -7 3 -2 5 12 5 14 0 19 -2 13 -5z
m190 0 c-18 -2 -48 -2 -65 0 -18 2 -4 4 32 4 36 0 50 -2 33 -4z m122 -103 c7
-43 -7 -101 -30 -120 -8 -7 -5 4 6 27 23 43 21 91 -5 145 -16 33 -16 33 3 10
11 -12 22 -40 26 -62z m-182 53 c-7 -2 -21 -2 -30 0 -10 3 -4 5 12 5 17 0 24
-2 18 -5z m52 -13 c3 -6 -1 -7 -9 -4 -18 7 -21 14 -7 14 6 0 13 -4 16 -10z
m-40 -11 c71 -19 86 -69 34 -113 -27 -23 -39 -26 -110 -26 l-79 0 0 75 0 75
58 0 c31 0 75 -5 97 -11z m90 -58 c5 -24 4 -32 -5 -26 -6 4 -9 9 -7 12 3 2 1
18 -4 36 -5 17 -5 27 0 21 5 -5 12 -24 16 -43z m-35 -65 c0 -2 -8 -10 -17 -17
-16 -13 -17 -12 -4 4 13 16 21 21 21 13z m-96 -35 c13 -5 0 -8 -34 -8 -36 0
-48 3 -35 8 25 10 45 10 69 0z m53 3 c-3 -3 -12 -4 -19 -1 -8 3 -5 6 6 6 11 1
17 -2 13 -5z m103 -18 c0 -2 -7 -7 -16 -10 -8 -3 -12 -2 -9 4 6 10 25 14 25 6z
m-31 -107 c32 -43 21 -46 -12 -4 -15 19 -24 35 -19 35 4 0 18 -14 31 -31z
m-262 -86 c-3 -10 -5 -2 -5 17 0 19 2 27 5 18 2 -10 2 -26 0 -35z m235 -5 c12
-17 17 -28 10 -25 -6 4 -21 22 -34 39 -12 17 -17 28 -10 25 6 -4 21 -22 34
-39z m79 25 c13 -16 12 -17 -3 -4 -10 7 -18 15 -18 17 0 8 8 3 21 -13z m29
-38 c11 -13 7 -15 -26 -14 -31 2 -33 3 -11 6 15 2 25 9 22 14 -10 14 1 10 15
-6z"/>
<path d="M9652 4968 c3 -173 4 -185 28 -228 14 -24 44 -58 68 -74 39 -28 51
-31 142 -34 88 -4 104 -2 153 21 53 24 87 59 106 110 6 15 11 106 12 204 l1
178 -60 3 -61 3 -3 -181 -3 -182 -33 -29 c-28 -25 -40 -29 -92 -29 -52 0 -64
4 -92 29 l-33 29 -3 181 -3 181 -65 0 -66 0 4 -182z m104 159 c4 -4 -10 -7
-32 -6 -30 0 -34 2 -19 8 22 9 41 8 51 -2z m392 -154 l-2 -168 -3 158 -4 157
-27 1 -27 1 30 8 c17 4 31 8 33 9 1 0 1 -74 0 -166z m-468 147 c0 -5 -2 -10
-4 -10 -3 0 -8 5 -11 10 -3 6 -1 10 4 10 6 0 11 -4 11 -10z m397 4 c-3 -3 -12
-4 -19 -1 -8 3 -5 6 6 6 11 1 17 -2 13 -5z m-400 -231 c-3 -10 -5 -4 -5 12 0
17 2 24 5 18 2 -7 2 -21 0 -30z m390 -45 c-3 -7 -5 -2 -5 12 0 14 2 19 5 13 2
-7 2 -19 0 -25z m-10 -40 c-3 -8 -6 -5 -6 6 -1 11 2 17 5 13 3 -3 4 -12 1 -19z
m-248 -61 c18 -19 21 -26 9 -22 -18 7 -58 64 -58 81 0 5 6 0 12 -11 6 -11 22
-33 37 -48z m328 31 c-3 -8 -6 -5 -6 6 -1 11 2 17 5 13 3 -3 4 -12 1 -19z
m-378 -94 c19 -13 32 -24 27 -24 -29 0 -87 64 -100 110 -3 14 3 6 15 -18 12
-24 38 -54 58 -68z m256 56 c-16 -16 -36 -30 -44 -29 -11 0 -10 3 4 8 11 5 29
18 39 30 11 11 21 21 24 21 3 0 -7 -13 -23 -30z m99 -15 c-21 -33 -93 -75
-125 -74 -20 1 -18 2 8 9 43 10 77 33 105 70 26 36 37 32 12 -5z m-181 -22
c-13 -2 -33 -2 -45 0 -13 2 -3 4 22 4 25 0 35 -2 23 -4z m-20 -60 c-7 -2 -21
-2 -30 0 -10 3 -4 5 12 5 17 0 24 -2 18 -5z"/>
<path d="M10450 4895 l0 -255 216 0 215 0 -3 43 -3 42 -152 3 -153 3 0 209 0
210 -60 0 -60 0 0 -255z m22 -17 c-8 -8 -9 -4 -5 13 4 13 8 18 11 10 2 -7 -1
-18 -6 -23z m193 -218 l184 1 3 32 3 32 6 -37 5 -38 -198 0 -198 0 -1 38 c-5
104 -4 139 1 157 3 11 6 -26 8 -82 l3 -103 184 0z m-108 158 c-3 -8 -6 -5 -6
6 -1 11 2 17 5 13 3 -3 4 -12 1 -19z"/>
<path d="M11281 5108 c-30 -69 -203 -452 -208 -460 -2 -5 25 -8 61 -8 l65 0
25 55 25 56 123 -3 123 -3 20 -52 20 -53 67 0 67 0 -35 78 c-20 42 -47 104
-61 137 -14 33 -40 92 -57 130 -18 39 -38 86 -46 105 -22 57 -27 60 -102 60
l-69 0 -18 -42z m164 -1 c8 -12 15 -26 15 -32 -1 -5 -8 2 -16 18 -13 24 -20
27 -65 27 -28 0 -48 3 -45 8 2 4 25 6 50 4 33 -3 51 -10 61 -25z m-144 -11
c-14 -36 -22 -33 -9 5 6 16 12 28 14 26 3 -2 0 -16 -5 -31z m-36 -85 c-22 -44
-27 -38 -7 9 9 21 18 35 20 30 2 -5 -4 -22 -13 -39z m145 -61 c17 -41 34 -81
37 -87 4 -10 -15 -13 -77 -13 -45 0 -80 3 -78 8 2 4 19 46 37 95 19 48 38 84
42 80 4 -5 21 -42 39 -83z m10 25 c0 -5 -5 -3 -10 5 -5 8 -10 20 -10 25 0 6 5
3 10 -5 5 -8 10 -19 10 -25z m-99 -12 c-12 -20 -14 -14 -5 12 4 9 9 14 11 11
3 -2 0 -13 -6 -23z m-25 -60 c-8 -15 -15 -25 -16 -21 0 12 23 58 27 54 3 -2
-2 -17 -11 -33z m242 -8 c-3 -3 -9 2 -12 12 -6 14 -5 15 5 6 7 -7 10 -15 7
-18z m-84 -1 c3 -8 2 -12 -4 -9 -6 3 -10 10 -10 16 0 14 7 11 14 -7z m133
-121 c-3 -2 -12 15 -22 39 -28 69 -27 78 0 19 14 -29 24 -55 22 -58z m-148 51
c2 -2 -33 -4 -78 -4 -52 0 -80 4 -76 10 6 9 143 3 154 -6z m-268 -21 c-12 -20
-14 -14 -5 12 4 9 9 14 11 11 3 -2 0 -13 -6 -23z m232 -30 c-7 -2 -21 -2 -30
0 -10 3 -4 5 12 5 17 0 24 -2 18 -5z m-190 -58 c-3 -9 -8 -14 -10 -11 -3 3 -2
9 2 15 9 16 15 13 8 -4z m422 -35 c15 -30 15 -30 -12 -29 -17 1 -21 3 -10 6
20 5 20 8 7 34 -6 10 -8 19 -6 19 3 0 12 -13 21 -30z m-515 12 c0 -5 -7 -17
-15 -28 -14 -18 -14 -17 -4 9 12 27 19 34 19 19z m75 -31 c-3 -6 -23 -10 -43
-10 -34 2 -34 2 -7 6 17 3 34 9 39 14 12 11 20 4 11 -10z"/>
<path d="M11920 4895 l0 -255 65 0 65 0 0 96 0 95 42 -3 c42 -3 45 -6 108 -95
l65 -92 77 -1 78 0 -78 97 -79 98 37 16 c137 62 126 249 -18 289 -20 5 -110
10 -199 10 l-163 0 0 -255z m74 237 c2 -4 -10 -8 -27 -9 -30 -1 -30 -1 -7 7
14 4 26 8 27 9 1 1 4 -3 7 -7z m83 -8 c-3 -3 -12 -4 -19 -1 -8 3 -5 6 6 6 11
1 17 -2 13 -5z m191 -1 c-10 -2 -28 -2 -40 0 -13 2 -5 4 17 4 22 1 32 -1 23
-4z m90 -53 c23 -34 30 -102 13 -129 -5 -8 -7 4 -4 32 6 53 -9 100 -41 123
-11 9 -14 14 -6 12 8 -3 25 -19 38 -38z m-113 -34 c33 -21 33 -65 1 -95 -19
-18 -39 -23 -109 -28 l-85 -6 -4 72 c-1 40 -1 75 2 78 11 12 171 -5 195 -21z
m-218 -88 c-2 -18 -4 -6 -4 27 0 33 2 48 4 33 2 -15 2 -42 0 -60z m130 -55
c-20 -2 -52 -2 -70 0 -17 2 0 4 38 4 39 0 53 -2 32 -4z m-210 -75 c-2 -13 -4
-5 -4 17 -1 22 1 32 4 23 2 -10 2 -28 0 -40z m170 26 c-3 -3 -12 -4 -19 -1 -8
3 -5 6 6 6 11 1 17 -2 13 -5z m-87 -114 l0 -80 -52 0 c-28 0 -48 3 -44 7 4 4
25 6 46 4 l40 -3 0 76 c0 42 2 76 5 76 3 0 5 -36 5 -80z m211 -15 c7 -14 4
-12 -11 5 -11 14 -25 34 -31 45 -7 14 -4 12 11 -5 11 -14 25 -34 31 -45z m104
-5 l20 -25 -24 20 c-13 11 -32 34 -43 50 l-21 30 24 -25 c13 -14 33 -37 44
-50z m-74 -37 c13 -16 12 -17 -3 -4 -10 7 -18 15 -18 17 0 8 8 3 21 -13z m114
-13 c4 -6 -9 -10 -32 -9 -38 1 -38 1 -8 9 17 4 31 8 32 9 1 0 5 -3 8 -9z"/>
<path d="M6970 4350 c0 -7 913 -10 2720 -10 1807 0 2720 3 2720 10 0 7 -913
10 -2720 10 -1807 0 -2720 -3 -2720 -10z"/>
<path d="M2822 4141 c-84 -88 -152 -162 -152 -165 0 -13 192 -164 290 -229
124 -82 368 -203 495 -246 204 -68 394 -105 550 -105 99 -1 116 2 169 26 109
51 306 213 306 252 0 24 -35 85 -59 103 -11 8 -60 12 -153 13 -296 0 -570 65
-829 195 -80 41 -229 140 -328 220 -69 54 -89 66 -75 43 5 -7 3 -8 -5 -4 -7 5
-10 11 -7 14 8 7 -24 42 -39 42 -7 0 -80 -72 -163 -159z m1216 -358 c-10 -2
-26 -2 -35 0 -10 3 -2 5 17 5 19 0 27 -2 18 -5z m149 -9 c-3 -3 -12 -4 -19 -1
-8 3 -5 6 6 6 11 1 17 -2 13 -5z m183 -197 c0 -2 -12 -14 -27 -28 l-28 -24 24
28 c23 25 31 32 31 24z m-293 -163 c-3 -3 -12 -4 -19 -1 -8 3 -5 6 6 6 11 1
17 -2 13 -5z"/>
<path d="M7094 4039 c-71 -20 -125 -122 -104 -198 19 -70 65 -112 141 -126 69
-13 185 39 158 71 -9 11 -17 10 -50 -6 -22 -12 -58 -20 -85 -20 -39 0 -51 5
-80 34 -30 30 -34 40 -34 86 0 47 4 56 39 91 47 48 86 51 156 13 52 -27 81
-21 54 12 -36 44 -125 63 -195 43z"/>
<path d="M7650 3880 l0 -160 25 0 c24 0 25 2 25 70 l0 71 88 -3 87 -3 3 -67
c3 -65 4 -68 27 -68 l25 0 0 160 0 160 -25 0 c-24 0 -25 -2 -25 -70 l0 -70
-90 0 -90 0 0 70 c0 68 -1 70 -25 70 l-25 0 0 -160z"/>
<path d="M8290 3880 l0 -160 25 0 25 0 0 160 0 160 -25 0 -25 0 0 -160z"/>
<path d="M8720 3880 l0 -160 25 0 c24 0 25 2 25 70 l0 70 85 0 85 0 0 -70 c0
-68 1 -70 25 -70 l25 0 0 160 0 160 -25 0 c-24 0 -25 -2 -25 -70 l0 -70 -85 0
-85 0 0 70 c0 68 -1 70 -25 70 l-25 0 0 -160z"/>
<path d="M9360 3928 c0 -124 12 -159 66 -195 38 -24 129 -24 167 1 47 31 57
65 60 191 3 113 3 115 -19 115 -21 0 -22 -4 -25 -114 -4 -105 -6 -117 -28
-140 -41 -44 -136 -31 -160 21 -6 13 -11 71 -11 128 l0 105 -25 0 -25 0 0
-112z"/>
<path d="M10079 3933 c-83 -176 -99 -211 -99 -217 0 -3 10 -4 23 -3 14 2 29
17 40 40 l19 37 93 0 94 0 12 -34 c9 -24 20 -36 38 -39 14 -3 27 -4 29 -2 2 2
-13 38 -34 82 -20 43 -54 115 -75 161 -33 72 -41 82 -64 82 -23 0 -31 -11 -76
-107z m78 -101 c-38 -2 -71 -1 -73 1 -3 2 12 39 33 82 l37 78 36 -79 36 -79
-69 -3z"/>
<path d="M10678 3881 l-3 -161 27 0 c28 0 28 0 25 68 l-2 67 88 3 87 3 0 -71
c0 -68 1 -70 25 -70 l25 0 0 160 0 160 -25 0 c-24 0 -25 -2 -25 -70 l0 -70
-85 0 c-61 0 -85 4 -87 13 0 6 -2 37 -2 67 -1 49 -4 55 -23 58 -22 3 -22 1
-25 -157z"/>
<path d="M11330 3930 c0 -78 4 -119 15 -140 46 -89 169 -104 241 -29 28 30 29
33 32 155 l4 124 -26 0 -26 0 0 -106 c0 -140 -18 -173 -95 -173 -77 0 -95 33
-95 173 l0 106 -25 0 -25 0 0 -110z"/>
<path d="M12073 3880 l-71 -160 27 0 c22 0 29 7 40 35 l12 35 95 0 94 0 14
-35 c12 -29 20 -35 45 -35 l30 0 -38 73 c-21 39 -56 111 -77 159 -36 82 -41
88 -69 88 -29 0 -32 -5 -102 -160z m148 13 l28 -63 -75 0 c-67 0 -90 9 -65 24
5 4 22 38 37 77 26 65 29 69 38 48 5 -13 22 -52 37 -86z"/>
<path d="M3671 2983 c-68 -34 -75 -125 -13 -174 22 -17 37 -20 79 -17 66 6 83
20 83 69 0 38 -1 39 -35 39 -19 0 -35 -4 -35 -10 0 -5 9 -10 20 -10 15 0 20
-7 20 -25 0 -46 -68 -60 -114 -24 -33 26 -37 88 -6 119 25 25 91 27 110 5 9
-11 16 -13 24 -5 16 16 -16 41 -60 46 -25 3 -51 -2 -73 -13z"/>
<path d="M4435 2993 c-11 -3 -32 -17 -47 -31 -63 -59 -18 -172 69 -172 54 0
83 10 83 27 0 11 -5 13 -17 8 -46 -20 -82 -17 -107 9 -69 68 10 171 96 125 25
-13 37 -3 17 16 -16 17 -64 26 -94 18z"/>
<path d="M6264 2986 c-69 -30 -87 -115 -35 -167 25 -24 38 -29 78 -29 58 0 90
19 109 66 12 29 12 39 0 69 -16 37 -68 75 -101 75 -11 -1 -34 -7 -51 -14z
m103 -38 c49 -46 14 -138 -53 -138 -71 0 -108 77 -63 134 27 34 82 36 116 4z"/>
<path d="M8210 2978 c-46 -31 -64 -81 -43 -123 23 -46 52 -65 104 -65 82 0
129 57 109 131 -19 71 -106 100 -170 57z m125 -28 c46 -50 5 -140 -62 -140
-71 0 -109 86 -61 137 29 31 97 32 123 3z"/>
<path d="M8492 2985 c-29 -13 -33 -19 -30 -47 3 -29 9 -34 58 -53 56 -21 76
-49 48 -66 -18 -12 -65 -11 -90 2 -27 14 -38 1 -14 -17 26 -19 96 -18 124 2
17 12 22 24 20 47 -3 28 -9 33 -58 52 -41 16 -55 26 -55 40 0 15 8 21 32 23
18 2 41 -2 53 -8 16 -8 20 -8 20 4 0 29 -62 41 -108 21z"/>
<path d="M9184 2975 c-65 -39 -73 -98 -20 -151 27 -27 42 -34 74 -34 23 0 52
4 66 10 33 12 36 35 4 25 -13 -4 -39 -9 -59 -12 -31 -4 -39 0 -62 27 -34 39
-34 74 -2 105 17 18 35 25 64 25 22 0 43 -4 46 -10 8 -13 35 -13 35 1 0 12
-61 39 -87 39 -10 0 -37 -11 -59 -25z"/>
<path d="M9454 2986 c-60 -27 -80 -86 -50 -145 8 -15 26 -32 41 -39 35 -16 97
-15 121 2 24 18 13 31 -14 17 -45 -24 -96 -11 -117 30 -20 38 -19 62 6 93 22
28 73 35 111 15 25 -14 36 -3 17 17 -22 21 -79 26 -115 10z"/>
<path d="M9820 2983 c-68 -35 -80 -105 -26 -159 28 -28 42 -34 75 -34 85 0
134 54 115 127 -17 67 -98 100 -164 66z m120 -40 c17 -21 20 -36 16 -63 -11
-70 -89 -94 -140 -44 -32 32 -34 72 -5 108 16 21 29 26 64 26 36 0 47 -5 65
-27z"/>
<path d="M10524 2986 c-61 -27 -80 -86 -49 -147 25 -47 108 -66 151 -35 24 18
13 31 -14 17 -81 -43 -163 61 -102 127 23 25 87 31 108 10 8 -8 15 -9 22 -2
28 28 -67 52 -116 30z"/>
<path d="M10768 2989 c-41 -16 -71 -70 -62 -114 15 -82 125 -116 185 -56 41
41 41 105 1 145 -32 30 -83 41 -124 25z m102 -41 c30 -33 27 -91 -6 -117 -34
-27 -66 -27 -99 2 -31 26 -36 74 -11 111 22 35 85 37 116 4z"/>
<path d="M11835 2993 c-30 -8 -56 -34 -72 -70 -28 -67 29 -133 115 -133 38 0
83 22 70 35 -3 4 -15 2 -26 -4 -60 -32 -132 8 -132 73 0 48 31 76 85 76 22 0
46 -5 53 -12 17 -17 24 -5 9 15 -13 18 -68 29 -102 20z"/>
<path d="M2530 2890 c0 -82 3 -100 15 -100 12 0 15 18 15 100 0 82 -3 100 -15
100 -12 0 -15 -18 -15 -100z"/>
<path d="M2640 2890 c0 -81 3 -100 15 -100 11 0 15 17 17 76 l3 75 55 -73 c81
-106 90 -103 90 21 0 82 -3 101 -15 101 -11 0 -15 -17 -17 -74 l-3 -74 -55 74
c-78 105 -90 101 -90 -26z"/>
<path d="M2865 2980 c-4 -6 12 -10 39 -10 l46 0 0 -90 c0 -73 3 -90 15 -90 12
0 15 17 15 90 l0 90 45 0 c25 0 45 5 45 10 0 6 -40 10 -99 10 -56 0 -103 -4
-106 -10z"/>
<path d="M3110 2890 l0 -100 75 0 c43 0 75 4 75 10 0 10 -29 13 -87 10 -31 -1
-33 0 -33 34 l0 36 50 0 c28 0 50 5 50 10 0 6 -22 10 -50 10 l-50 0 0 35 0 35
55 0 c30 0 55 5 55 10 0 6 -30 10 -70 10 l-70 0 0 -100z"/>
<path d="M3320 2890 l0 -100 70 0 c40 0 70 4 70 10 0 6 -25 10 -55 10 l-55 0
0 90 c0 73 -3 90 -15 90 -12 0 -15 -18 -15 -100z"/>
<path d="M3516 2923 c1 -38 2 -83 3 -100 1 -22 6 -33 16 -33 12 0 15 18 15
100 0 90 -2 100 -18 100 -16 0 -18 -8 -16 -67z"/>
<path d="M3890 2890 l0 -100 75 0 c53 0 75 4 75 13 0 8 -17 11 -60 9 l-60 -4
0 36 0 36 49 0 c28 0 53 5 56 10 7 12 -4 13 -62 11 -43 -2 -43 -2 -43 33 l0
36 60 0 c33 0 60 4 60 10 0 6 -32 10 -75 10 l-75 0 0 -100z"/>
<path d="M4100 2890 c0 -81 3 -100 15 -100 11 0 15 18 17 77 l3 77 60 -76 c82
-106 91 -104 87 22 -3 81 -6 100 -18 100 -13 0 -15 -13 -12 -75 2 -41 3 -75 2
-75 0 0 -27 34 -60 75 -32 41 -67 74 -76 75 -16 0 -18 -11 -18 -100z"/>
<path d="M4610 2890 c0 -82 3 -100 15 -100 12 0 15 18 15 100 0 82 -3 100 -15
100 -12 0 -15 -18 -15 -100z"/>
<path d="M4745 2899 c-22 -51 -41 -96 -43 -100 -2 -5 5 -9 16 -9 14 0 22 8 24
23 3 19 10 22 55 25 48 3 54 1 65 -22 10 -23 38 -37 38 -20 0 3 -19 48 -41
100 -29 64 -47 94 -58 94 -12 0 -29 -29 -56 -91z m89 -17 c7 -20 4 -22 -33
-22 -23 0 -41 2 -41 4 0 2 10 25 21 51 l21 48 13 -29 c7 -17 16 -40 19 -52z"/>
<path d="M5050 2980 c0 -5 16 -10 35 -10 l35 0 0 -90 c0 -73 3 -90 15 -90 12
0 15 17 15 90 l0 90 40 0 c22 0 40 5 40 10 0 6 -37 10 -90 10 -53 0 -90 -4
-90 -10z"/>
<path d="M5270 2890 l0 -101 73 3 c44 2 70 7 67 13 -3 6 -14 10 -25 11 -11 1
-35 2 -53 2 -31 2 -33 4 -30 35 3 31 5 32 45 32 24 0 42 5 40 10 -1 6 -21 8
-44 7 l-43 -4 0 36 0 36 54 0 c30 0 58 5 61 10 4 6 -22 10 -69 10 l-76 0 0
-100z"/>
<path d="M5480 2890 c0 -82 3 -100 15 -100 11 0 15 11 15 38 0 37 1 38 30 34
20 -3 35 -15 49 -38 13 -22 28 -34 42 -34 20 0 21 2 7 18 -9 9 -21 27 -28 40
-10 20 -9 26 6 36 24 18 23 75 -1 92 -11 8 -44 14 -77 14 l-58 0 0 -100z m120
60 c17 -32 -3 -57 -50 -62 l-40 -4 0 43 0 43 40 0 c29 0 42 -5 50 -20z"/>
<path d="M5700 2890 c0 -80 3 -100 14 -100 10 0 16 13 18 36 2 31 7 37 28 39
19 2 31 -6 52 -36 39 -54 67 -54 33 1 l-25 40 20 20 c25 25 25 55 0 80 -16 16
-33 20 -80 20 l-60 0 0 -100z m124 58 c18 -29 -4 -53 -53 -56 l-41 -3 0 41 0
41 41 -3 c27 -2 46 -9 53 -20z"/>
<path d="M5930 2890 c0 -82 3 -100 15 -100 12 0 15 18 15 100 0 82 -3 100 -15
100 -12 0 -15 -18 -15 -100z"/>
<path d="M5990 2980 c0 -5 20 -10 45 -10 l45 0 0 -90 c0 -73 3 -90 15 -90 12
0 15 17 15 90 l0 90 35 0 c19 0 35 5 35 10 0 6 -38 10 -95 10 -57 0 -95 -4
-95 -10z"/>
<path d="M6490 2890 c0 -82 3 -100 15 -100 11 0 15 11 15 41 0 33 3 40 16 35
9 -3 24 -6 33 -6 10 0 26 -15 37 -35 11 -20 26 -35 37 -35 17 0 16 4 -6 41
-24 40 -24 42 -6 60 10 10 19 30 19 43 0 37 -35 56 -102 56 l-58 0 0 -100z
m124 58 c18 -29 -4 -53 -53 -56 l-41 -3 0 41 0 41 41 -3 c27 -2 46 -9 53 -20z"/>
<path d="M6720 2890 c0 -82 3 -100 15 -100 12 0 15 18 15 100 0 82 -3 100 -15
100 -12 0 -15 -18 -15 -100z"/>
<path d="M6855 2918 c-16 -39 -36 -84 -43 -100 -11 -25 -10 -28 7 -28 12 0 21
9 25 25 6 22 11 25 56 25 44 0 52 -3 62 -25 6 -14 19 -25 29 -25 16 0 15 7
-11 63 -16 34 -35 79 -44 100 -24 59 -46 49 -81 -35z m79 -36 c7 -20 4 -22
-32 -22 l-40 0 21 50 21 50 12 -28 c6 -16 15 -38 18 -50z"/>
<path d="M7090 2890 l0 -100 65 0 c37 0 65 4 65 10 0 6 -22 10 -50 10 l-50 0
0 90 c0 73 -3 90 -15 90 -12 0 -15 -18 -15 -100z"/>
<path d="M7695 2890 c0 -91 2 -100 19 -100 15 0 17 6 14 35 l-4 35 43 0 c33 0
50 6 68 25 30 29 31 45 4 79 -18 23 -27 26 -82 26 l-62 0 0 -100z m119 64 c33
-33 9 -66 -51 -68 -35 -1 -36 0 -40 42 l-4 42 40 0 c23 0 46 -7 55 -16z"/>
<path d="M7930 2890 c0 -82 3 -100 15 -100 10 0 15 11 15 35 0 24 5 35 14 35
8 0 21 3 30 6 10 4 23 -8 40 -35 15 -23 33 -41 41 -41 19 0 19 2 -6 45 -20 33
-20 37 -5 54 21 23 20 64 -2 84 -13 12 -37 17 -80 17 l-62 0 0 -100z m124 58
c18 -29 -4 -53 -53 -56 l-41 -3 0 41 0 41 41 -3 c27 -2 46 -9 53 -20z"/>
<path d="M8680 2890 c0 -82 3 -100 15 -100 10 0 15 11 15 35 0 35 0 35 45 35
35 0 52 6 70 25 28 27 30 37 14 68 -18 33 -28 37 -96 37 l-63 0 0 -100z m132
54 c11 -23 10 -29 -11 -46 -16 -12 -35 -17 -55 -15 -29 3 -31 6 -34 45 l-3 42
46 0 c39 0 47 -3 57 -26z"/>
<path d="M8920 2890 l0 -100 75 0 c43 0 75 4 75 10 0 6 -27 10 -60 10 l-60 0
0 34 0 35 53 3 c28 2 50 7 47 12 -3 5 -26 8 -52 7 l-48 -2 0 35 0 36 60 0 c33
0 60 4 60 10 0 6 -32 10 -75 10 l-75 0 0 -100z"/>
<path d="M9660 2890 c0 -82 3 -100 15 -100 12 0 15 18 15 100 0 82 -3 100 -15
100 -12 0 -15 -18 -15 -100z"/>
<path d="M10070 2890 c0 -81 3 -100 15 -100 11 0 15 18 17 80 l3 80 60 -79
c33 -44 65 -80 71 -81 7 0 13 12 15 28 6 46 -2 172 -11 172 -5 0 -10 -34 -12
-75 l-3 -75 -58 75 c-37 48 -65 75 -77 75 -19 0 -20 -7 -20 -100z"/>
<path d="M10990 2891 c0 -83 3 -101 15 -101 12 0 15 16 15 83 l0 82 44 -79
c50 -90 39 -92 105 24 l31 55 0 -82 c0 -67 3 -83 15 -83 12 0 15 18 15 101 0
98 -1 100 -22 97 -16 -2 -32 -23 -57 -70 -20 -37 -38 -68 -41 -68 -3 0 -21 31
-41 68 -25 47 -41 68 -57 70 -21 3 -22 1 -22 -97z"/>
<path d="M11310 2890 l0 -100 75 0 c43 0 75 4 75 10 0 6 -27 10 -60 10 l-60 0
0 35 c0 21 5 35 13 36 6 1 27 1 45 1 18 0 35 5 38 9 3 5 -18 9 -45 9 l-51 0 0
35 0 35 60 0 c33 0 60 4 60 10 0 6 -32 10 -75 10 l-75 0 0 -100z"/>
<path d="M11530 2890 c0 -82 3 -100 15 -100 10 0 15 11 15 35 0 24 5 35 14 35
8 0 21 3 29 6 11 4 23 -7 39 -35 13 -24 30 -41 41 -41 16 0 15 4 -7 43 -25 42
-25 43 -6 55 28 17 26 66 -2 86 -14 10 -44 16 -80 16 l-58 0 0 -100z m118 68
c16 -16 15 -43 0 -55 -7 -6 -30 -13 -50 -16 l-38 -6 0 45 0 44 38 0 c21 0 43
-5 50 -12z"/>
<path d="M12010 2890 c0 -82 3 -100 15 -100 12 0 15 18 15 100 0 82 -3 100
-15 100 -12 0 -15 -18 -15 -100z"/>
<path d="M12171 2935 c-12 -31 -30 -74 -41 -95 -24 -46 -24 -50 -7 -50 8 0 19
11 25 25 10 22 18 25 65 25 48 0 55 -3 65 -25 6 -14 18 -25 26 -25 15 0 2 36
-56 158 -28 60 -51 56 -77 -13z m78 -62 c1 -9 -13 -13 -39 -13 -22 0 -40 2
-40 4 0 2 10 25 22 52 l21 49 18 -40 c10 -22 18 -46 18 -52z"/>
<path d="M12390 2890 l0 -100 70 0 c40 0 70 4 70 10 0 6 -25 10 -55 10 l-55 0
0 90 c0 73 -3 90 -15 90 -12 0 -15 -18 -15 -100z"/>
<path d="M7456 2904 c-9 -8 -16 -19 -16 -24 0 -9 28 -40 36 -40 17 0 44 23 44
38 0 38 -37 53 -64 26z"/>
<path d="M3772 2508 c-27 -13 -39 -53 -22 -73 7 -8 33 -21 58 -28 54 -16 72
-38 53 -61 -15 -18 -57 -21 -95 -6 -31 11 -36 -4 -7 -20 29 -15 93 -12 119 6
22 15 29 48 14 72 -5 7 -31 21 -58 30 -35 13 -50 24 -52 39 -4 25 29 36 66 22
16 -6 29 -6 35 0 7 7 1 14 -17 21 -34 13 -64 12 -94 -2z"/>
<path d="M4003 2508 c-61 -30 -67 -126 -11 -173 28 -23 39 -26 80 -23 58 6 95
36 104 83 7 38 -14 86 -48 109 -25 18 -92 20 -125 4z m125 -44 c30 -34 28 -70
-7 -105 -40 -40 -81 -39 -115 2 -28 33 -32 55 -15 93 24 51 96 57 137 10z"/>
<path d="M4252 2504 c-22 -15 -29 -48 -13 -72 4 -7 28 -19 51 -26 53 -15 70
-37 50 -61 -11 -14 -24 -16 -62 -11 -46 6 -66 -5 -32 -18 61 -24 134 8 134 58
0 29 -9 36 -70 56 -53 18 -65 45 -25 60 16 6 33 7 44 1 9 -5 23 -6 30 -1 11 6
9 10 -7 19 -29 16 -74 14 -100 -5z"/>
<path d="M4400 2505 c0 -11 11 -15 38 -15 l37 0 -3 -90 c-3 -86 -3 -90 18 -90
21 0 21 4 18 90 l-3 90 38 0 c26 0 37 4 37 15 0 12 -17 15 -90 15 -73 0 -90
-3 -90 -15z"/>
<path d="M4612 2415 l3 -105 73 0 c57 0 72 3 72 15 0 12 -13 15 -61 15 l-60 0
3 33 c3 32 3 32 56 31 40 -1 52 2 52 13 0 11 -12 14 -52 12 -53 -3 -53 -3 -56
28 l-3 32 63 3 c89 4 79 22 -15 26 l-78 3 3 -106z"/>
<path d="M4830 2415 c0 -87 3 -105 15 -105 12 0 15 16 15 82 l0 82 38 -50 c58
-79 90 -114 101 -114 7 0 11 37 11 105 0 85 -3 105 -15 105 -11 0 -15 -17 -17
-75 l-3 -75 -59 75 c-32 41 -65 75 -72 75 -11 0 -14 -23 -14 -105z"/>
<path d="M5090 2415 c0 -87 3 -105 15 -105 12 0 15 18 15 105 0 87 -3 105 -15
105 -12 0 -15 -18 -15 -105z"/>
<path d="M5200 2415 l0 -105 70 0 c57 0 74 4 90 20 26 26 25 55 -2 74 -21 15
-21 16 -4 29 25 18 17 58 -14 74 -14 7 -51 13 -82 13 l-58 0 0 -105z m134 65
c21 -21 -9 -45 -58 -48 -45 -3 -46 -3 -46 27 0 20 6 31 18 34 23 7 74 -1 86
-13z m-3 -80 c10 -6 19 -19 19 -30 0 -25 -29 -40 -79 -40 l-41 0 0 40 0 40 41
0 c22 0 49 -5 60 -10z"/>
<path d="M5440 2415 c0 -87 3 -105 15 -105 12 0 15 18 15 105 0 87 -3 105 -15
105 -12 0 -15 -18 -15 -105z"/>
<path d="M5547 2418 l3 -103 70 -3 c56 -2 70 0 70 12 0 11 -8 13 -27 10 -16
-3 -43 -2 -61 1 l-34 6 4 90 c2 75 1 89 -12 89 -13 0 -15 -16 -13 -102z"/>
<path d="M5750 2415 c0 -87 3 -105 15 -105 12 0 15 18 15 105 0 87 -3 105 -15
105 -12 0 -15 -18 -15 -105z"/>
<path d="M5860 2415 l0 -107 66 4 c60 4 70 7 95 36 20 22 29 43 29 67 0 24 -9
45 -29 67 -25 29 -35 32 -95 36 l-66 4 0 -107z m140 55 c25 -25 26 -80 2 -110
-12 -15 -33 -24 -65 -27 l-47 -6 0 82 0 81 45 0 c32 0 51 -6 65 -20z"/>
<path d="M6132 2421 c-23 -55 -42 -102 -42 -105 0 -18 31 -2 36 19 6 23 11 25
60 25 48 0 56 -3 66 -25 11 -25 45 -37 35 -12 -3 6 -19 48 -37 92 -55 136 -63
137 -118 6z m77 22 c7 -21 15 -44 17 -50 4 -9 -6 -13 -35 -13 -23 0 -41 3 -41
7 0 14 35 93 41 93 3 0 11 -17 18 -37z"/>
<path d="M6360 2414 l0 -106 71 4 c65 3 74 6 100 36 72 81 8 172 -121 172
l-50 0 0 -106z m145 51 c31 -30 32 -66 2 -101 -19 -21 -33 -27 -68 -28 l-44
-1 -3 78 -3 77 46 0 c35 0 52 -6 70 -25z"/>
<path d="M7090 2415 l0 -105 75 0 c60 0 75 3 75 15 0 8 -3 14 -7 14 -5 -1 -32
-1 -61 0 l-53 1 3 31 c3 31 5 32 50 33 26 1 46 6 45 11 -1 6 -23 9 -49 7 l-48
-3 0 35 0 36 60 0 c47 0 60 3 60 15 0 12 -15 15 -75 15 l-75 0 0 -105z"/>
<path d="M7374 2510 c-30 -12 -64 -58 -64 -87 0 -37 27 -81 62 -99 34 -18 111
-15 131 5 16 16 -1 27 -23 13 -35 -21 -79 -14 -111 17 -34 35 -37 68 -9 104
27 34 79 44 121 23 40 -20 52 -11 20 15 -25 20 -88 25 -127 9z"/>
<path d="M7651 2506 c-31 -17 -50 -53 -51 -94 0 -26 9 -43 35 -69 33 -33 39
-35 86 -31 70 7 104 41 104 104 0 39 -5 50 -33 75 -25 23 -42 29 -75 29 -23
-1 -53 -7 -66 -14z m120 -35 c17 -18 29 -40 29 -56 0 -37 -50 -85 -88 -85 -61
0 -106 86 -69 132 36 45 88 49 128 9z"/>
<path d="M7930 2415 c0 -85 3 -105 15 -105 11 0 15 17 17 75 l3 76 58 -76 c32
-41 65 -75 73 -75 11 0 14 20 14 105 0 87 -3 105 -15 105 -12 0 -15 -16 -16
-82 0 -81 0 -82 -17 -58 -34 50 -113 140 -122 140 -6 0 -10 -44 -10 -105z"/>
<path d="M8245 2487 c-48 -48 -49 -95 -1 -143 29 -29 41 -34 80 -34 36 0 52 6
78 29 28 25 33 36 33 75 0 63 -34 97 -104 104 -47 4 -53 2 -86 -31z m129 -9
c15 -13 29 -37 32 -55 5 -27 1 -37 -24 -63 -19 -18 -41 -30 -57 -30 -32 0 -85
49 -85 79 0 76 80 117 134 69z"/>
<path d="M8520 2415 c0 -90 2 -105 16 -105 14 0 16 11 12 81 -5 90 -8 91 55
-11 21 -33 42 -58 46 -55 8 5 62 93 86 140 8 15 11 -1 13 -67 2 -69 6 -88 17
-88 12 0 15 20 15 105 0 102 -1 105 -22 105 -18 0 -33 -18 -69 -81 l-45 -80
-45 80 c-29 52 -50 81 -61 81 -16 0 -18 -12 -18 -105z"/>
<path d="M8880 2415 c0 -87 3 -105 15 -105 12 0 15 18 15 105 0 87 -3 105 -15
105 -12 0 -15 -18 -15 -105z"/>
<path d="M9038 2415 c-41 -91 -44 -105 -28 -105 11 0 20 10 24 25 6 25 10 26
64 23 48 -3 59 -7 67 -25 5 -13 17 -23 27 -23 14 0 9 18 -30 105 -31 71 -51
105 -62 105 -11 0 -31 -34 -62 -105z m99 -17 c4 -15 -1 -18 -36 -18 -22 0 -41
4 -41 9 0 5 10 30 21 56 l21 48 15 -39 c8 -21 17 -47 20 -56z"/>
<path d="M9442 2500 c-41 -25 -56 -58 -48 -104 13 -70 115 -113 172 -72 24 18
13 31 -14 17 -12 -6 -33 -11 -47 -11 -35 0 -85 50 -85 85 0 32 49 85 79 85 11
0 32 -5 47 -10 33 -13 46 -3 20 16 -28 20 -85 17 -124 -6z"/>
<path d="M9660 2415 c0 -87 3 -105 15 -105 12 0 15 18 15 105 0 87 -3 105 -15
105 -12 0 -15 -18 -15 -105z"/>
<path d="M9808 2415 c-3 -95 -1 -105 15 -105 13 0 17 9 17 40 0 38 2 40 30 40
24 0 34 -7 52 -40 13 -22 31 -40 41 -40 22 0 22 4 -8 47 -24 36 -24 37 -5 50
29 21 26 67 -6 92 -19 15 -41 21 -80 21 l-53 0 -3 -105z m116 69 c19 -7 21
-45 4 -62 -7 -7 -29 -12 -50 -12 -38 0 -38 0 -38 40 0 39 1 40 34 40 19 0 41
-3 50 -6z"/>
<path d="M10095 2506 c-34 -15 -55 -52 -55 -97 0 -22 10 -41 34 -65 28 -28 41
-34 78 -34 24 0 53 6 64 14 24 18 13 31 -14 17 -90 -48 -178 68 -101 133 32
28 67 33 101 15 27 -14 38 -1 14 17 -24 17 -81 18 -121 0z"/>
<path d="M10310 2455 c0 -71 17 -117 49 -135 35 -18 88 -12 118 14 26 23 28
29 28 102 0 53 -4 79 -12 81 -9 3 -13 -10 -13 -49 0 -82 -16 -127 -47 -134
-37 -10 -76 15 -84 51 -4 17 -7 54 -8 83 -1 39 -5 52 -16 52 -12 0 -15 -14
-15 -65z"/>
<path d="M10590 2415 l0 -105 81 0 c51 0 78 4 74 10 -3 6 -33 10 -66 10 l-59
0 0 95 c0 78 -3 95 -15 95 -12 0 -15 -18 -15 -105z"/>
<path d="M10880 2500 c-13 -24 -80 -180 -80 -186 0 -2 6 -4 13 -4 8 0 19 11
25 25 10 22 18 25 67 25 50 0 55 -2 61 -25 4 -15 13 -25 24 -25 16 0 13 14
-27 105 -46 105 -63 123 -83 85z m60 -112 c0 -5 -18 -8 -41 -8 -22 0 -39 3
-37 8 2 4 12 29 22 55 l19 49 19 -49 c10 -26 18 -51 18 -55z"/>
<path d="M11100 2416 c0 -91 2 -106 16 -106 13 0 15 8 12 35 -4 34 -3 35 28
35 26 0 37 -7 54 -35 12 -19 28 -35 36 -35 19 0 18 7 -7 46 l-20 33 20 20 c51
51 12 102 -79 109 l-60 4 0 -106z m124 52 c18 -29 -4 -53 -53 -56 l-41 -3 0
41 0 41 41 -3 c27 -2 46 -9 53 -20z"/>
<path d="M6785 2430 c-4 -6 -4 -22 -1 -36 5 -20 12 -25 34 -22 23 2 27 8 27
33 0 25 -4 31 -27 33 -14 2 -29 -2 -33 -8z"/>
</g>
</svg>
